<svg width="238" height="120" viewBox="0 0 238 120" fill="none" xmlns="http://www.w3.org/2000/svg">
<path opacity="0.6" d="M118.921 119.553C184.599 119.553 237.841 107.8 237.841 93.3021C237.841 78.804 184.599 67.051 118.921 67.051C53.2426 67.051 0 78.804 0 93.3021C0 107.8 53.2426 119.553 118.921 119.553Z" fill="#E6E6E6"/>
<path d="M45.8603 100.577C29.2661 100.577 15.8139 99.4437 15.8139 98.0463C15.8139 96.6489 29.2661 95.5161 45.8603 95.5161C62.4545 95.5161 75.9067 96.6489 75.9067 98.0463C75.9067 99.4437 62.4545 100.577 45.8603 100.577Z" fill="#2B2B2B"/>
<path d="M205.002 75.2742H205.235C206.385 75.2742 207.488 75.7145 208.302 76.4983C209.115 77.2821 209.572 78.3452 209.573 79.4539V101.536H200.663V79.4539C200.663 78.9048 200.775 78.3611 200.994 77.8538C201.212 77.3465 201.532 76.8857 201.935 76.4976C202.338 76.1094 202.816 75.8016 203.342 75.5917C203.869 75.3818 204.433 75.2739 205.002 75.2742Z" fill="#3170F3"/>
<path d="M211.448 100.598H199.255V102.474H211.448V100.598Z" fill="#3170F3"/>
<path d="M147.155 0H89.0264V104.252H147.155V0Z" fill="#C9C9C9"/>
<path d="M141.95 11.8875H93.8345V85.2546H141.95V11.8875Z" fill="white"/>
<path opacity="0.08" d="M147.15 20.6732H123.951V41.0306H147.15V20.6732Z" fill="black"/>
<path opacity="0.08" d="M152.446 43.0138H125.246V79.7021H152.446V43.0138Z" fill="black"/>
<path opacity="0.56" d="M118.267 100.341C121.409 100.341 123.956 97.7936 123.956 94.6516C123.956 91.5096 121.409 88.9625 118.267 88.9625C115.125 88.9625 112.578 91.5096 112.578 94.6516C112.578 97.7936 115.125 100.341 118.267 100.341Z" fill="white"/>
<path opacity="0.08" d="M110.83 39.9152L120.385 41.3412L120.09 41.9779C119.137 44.1254 118.589 46.4306 118.475 48.7773C118.404 49.9182 117.757 51.4767 115.608 53.3102C111.941 56.4374 109.583 66.5066 104.714 70.4386C103.272 71.6401 102.103 73.1342 101.283 74.8218C100.463 76.5094 100.011 78.3521 99.9565 80.2276L99.0091 104.247H89.5664L91.6495 67.5202L94.1503 54.8433L100.262 48.5685L105.865 41.3412L108.411 39.9152H110.83Z" fill="black"/>
<path opacity="0.12" d="M129.472 4.07452H113.173V6.45304H129.472V4.07452Z" fill="black"/>
<path d="M107.27 8.17452C108.736 8.17452 109.924 6.98649 109.924 5.52098C109.924 4.05546 108.736 2.86743 107.27 2.86743C105.805 2.86743 104.617 4.05546 104.617 5.52098C104.617 6.98649 105.805 8.17452 107.27 8.17452Z" fill="white"/>
<path d="M94.1299 53.5801L103.277 42.1765L105.253 43.9082L97.4557 56.9467L94.1299 53.5801Z" fill="#3170F3"/>
<path d="M78.9782 34.7966L80.6641 39.8643L76.6557 42.4109L75.2144 33.6302L78.9782 34.7966Z" fill="#F4A28C"/>
<path d="M73.8392 28.7357C74.0473 28.2529 74.3729 27.8298 74.7863 27.505C75.1997 27.1801 75.6878 26.9638 76.2061 26.8757C76.7244 26.7877 77.2566 26.8306 77.7541 27.0007C78.2516 27.1708 78.6986 27.4625 79.0546 27.8495C80.7608 29.6678 82.8184 32.5658 80.4909 34.1447C76.9256 36.5588 73.6609 32.0463 73.6609 32.0463C73.3928 30.9493 73.4548 29.7976 73.8392 28.7357Z" fill="#F4A28C"/>
<path d="M76.4414 31.8426C76.4414 31.8426 75.5297 31.0786 75.1121 32.1634C74.6944 33.2483 76.3141 33.7678 76.7928 33.2228C77.2716 32.6779 76.4414 31.8426 76.4414 31.8426Z" fill="#F4A28C"/>
<path d="M71.9746 44.8963C72.5807 43.5556 73.4685 42.3612 74.5777 41.3944C75.6868 40.4276 76.9912 39.7112 78.4022 39.2938C83.8468 37.6589 93.8803 39.4466 96.9362 44.5449C101.123 51.5174 94.9957 73.6778 94.9957 73.6778L76.6908 75.0988C76.6908 75.0988 66.6471 56.9264 71.9746 44.8963Z" fill="#3170F3"/>
<path d="M94.9957 73.6677L92.5866 105.133H88.782L85.3797 80.6861L76.9658 75.0887L94.9957 73.6677Z" fill="#24285B"/>
<path d="M76.9659 75.0886L71.7148 105.133H75.7945L84.6108 80.1716L76.9659 75.0886Z" fill="#24285B"/>
<path opacity="0.08" d="M79.9864 38.8049C79.9864 38.8049 71.4248 66.3794 96.1471 68.2078L94.996 73.6881L76.6912 75.1091C76.6912 75.1091 70.2432 64.9788 70.5131 50.7535C70.5131 50.7535 70.671 43.7198 75.6063 40.613C76.9208 39.7049 78.4142 39.0885 79.9864 38.8049Z" fill="black"/>
<path d="M72.6726 105.067L70.2126 106.88C70.1227 106.949 70.0565 107.044 70.023 107.152C69.9895 107.26 69.9904 107.376 70.0257 107.483C70.061 107.591 70.1288 107.685 70.2198 107.752C70.3108 107.819 70.4204 107.856 70.5335 107.858H74.6539C74.7975 107.857 74.9348 107.799 75.0359 107.697C75.137 107.595 75.1937 107.457 75.1937 107.313V105.067H72.6726Z" fill="#3170F3"/>
<path d="M92.113 105.067L94.4304 106.88C94.5213 106.95 94.588 107.046 94.6211 107.156C94.6542 107.265 94.652 107.382 94.6148 107.49C94.5776 107.599 94.5073 107.692 94.4139 107.758C94.3205 107.824 94.2086 107.859 94.0942 107.858H91.1606C90.952 107.862 90.7449 107.823 90.5513 107.746C90.3577 107.668 90.1815 107.553 90.033 107.406C89.8846 107.259 89.7669 107.085 89.6867 106.892C89.6066 106.7 89.5657 106.493 89.5664 106.284V105.062L92.113 105.067Z" fill="#3170F3"/>
<path d="M87.448 39.141C86.5361 40.6051 86.0527 42.2954 86.0527 44.0203C86.0527 45.7451 86.5361 47.4354 87.448 48.8995C89.4446 52.2712 95.2559 58.8312 99.2235 63.1604C99.6717 63.6512 100.23 64.0285 100.853 64.2609C101.476 64.4933 102.145 64.5743 102.805 64.4972C103.465 64.4201 104.098 64.1871 104.65 63.8174C105.202 63.4477 105.659 62.9519 105.982 62.371L114.523 47.341L111.63 45.4871L103.812 56.9467C103.812 56.9467 98.4493 39.36 87.448 39.141Z" fill="#3170F3"/>
<path opacity="0.2" d="M87.448 39.141C86.5361 40.6051 86.0527 42.2954 86.0527 44.0203C86.0527 45.7451 86.5361 47.4354 87.448 48.8995C89.4446 52.2712 95.2559 58.8312 99.2235 63.1604C99.6717 63.6512 100.23 64.0285 100.853 64.2609C101.476 64.4933 102.145 64.5743 102.805 64.4972C103.465 64.4201 104.098 64.1871 104.65 63.8174C105.202 63.4477 105.659 62.9519 105.982 62.371L114.523 47.341L111.63 45.4871L103.812 56.9467C103.812 56.9467 98.4493 39.36 87.448 39.141Z" fill="white"/>
<path d="M113.504 46.6941C113.504 46.6941 118.348 44.9166 116.372 42.1765C114.395 39.4364 111.62 45.4871 111.62 45.4871L113.504 46.6941Z" fill="#F4A28C"/>
<path d="M117.904 38.7369L113.539 36.7817L110.689 43.145L115.053 45.1002L117.904 38.7369Z" fill="#78AEFF"/>
<path d="M75.4791 35.2397L72.7593 32.4333C72.4789 32.1412 72.2611 31.795 72.1193 31.4158C71.9774 31.0366 71.9144 30.6324 71.9342 30.228C72.0004 28.8019 72.306 26.5252 73.4622 24.8139C75.3161 22.1349 77.7863 21.1214 78.3975 23.4388C79.0086 25.7562 79.1411 23.0058 80.6334 24.2333C82.1257 25.4608 81.8201 26.1891 80.6334 26.841C79.4467 27.4929 76.9867 28.4403 76.7677 30.4062C76.5486 32.3722 78.4331 33.9256 75.4791 35.2397Z" fill="#24285B"/>
<path d="M103.741 42.584C103.741 42.584 104.347 38.4025 108.401 38.8049C112.455 39.2072 110.973 40.2411 109.338 40.3328C109.006 40.4027 108.698 40.5606 108.447 40.7899C108.196 41.0192 108.011 41.3116 107.912 41.6367C107.673 42.3701 107.016 43.3174 105.269 43.9184L103.741 42.584Z" fill="#F4A28C"/>
<path d="M172.606 17.6631H123.951V38.0206H172.606V17.6631Z" fill="#78AEFF"/>
<path d="M145.617 22.0789H129.472V32.4232H145.617V22.0789Z" fill="white"/>
<path d="M166.412 23.179H151.555V26.2349H166.412V23.179Z" fill="white"/>
<path opacity="0.46" d="M166.412 28.1041H151.555V31.16H166.412V28.1041Z" fill="white"/>
<path d="M66.5201 37.7862L62.3386 36.0749V32.1022H45.9131V42.3344H62.3386V38.8914L66.5201 37.7862Z" fill="#E6E6E6"/>
<path opacity="0.12" d="M50.451 38.4687C51.1401 38.4687 51.6988 37.9101 51.6988 37.2209C51.6988 36.5318 51.1401 35.9731 50.451 35.9731C49.7618 35.9731 49.2031 36.5318 49.2031 37.2209C49.2031 37.9101 49.7618 38.4687 50.451 38.4687Z" fill="black"/>
<path opacity="0.12" d="M54.0974 38.4687C54.7866 38.4687 55.3453 37.9101 55.3453 37.2209C55.3453 36.5318 54.7866 35.9731 54.0974 35.9731C53.4083 35.9731 52.8496 36.5318 52.8496 37.2209C52.8496 37.9101 53.4083 38.4687 54.0974 38.4687Z" fill="black"/>
<path opacity="0.12" d="M57.658 38.4687C58.3471 38.4687 58.9058 37.9101 58.9058 37.2209C58.9058 36.5318 58.3471 35.9731 57.658 35.9731C56.9688 35.9731 56.4102 36.5318 56.4102 37.2209C56.4102 37.9101 56.9688 38.4687 57.658 38.4687Z" fill="black"/>
<path d="M157.506 67.6836H149.283V70.2138H157.506V67.6836Z" fill="#E6E6E6"/>
<path d="M154.344 43.0139H129.674V74.0092H154.344V43.0139Z" fill="#24285B"/>
<path opacity="0.07" d="M151.091 44.9115H133.559C132.81 44.9115 132.204 45.4544 132.204 46.1242V48.1267C132.204 48.7964 132.81 49.3394 133.559 49.3394H151.091C151.84 49.3394 152.446 48.7964 152.446 48.1267V46.1242C152.446 45.4544 151.84 44.9115 151.091 44.9115Z" fill="white"/>
<path d="M148.018 41.1162H135.999V43.0139H148.018V41.1162Z" fill="#3170F3"/>
<path d="M149.916 48.7069C150.614 48.7069 151.181 47.9988 151.181 47.1255C151.181 46.2521 150.614 45.5441 149.916 45.5441C149.217 45.5441 148.65 46.2521 148.65 47.1255C148.65 47.9988 149.217 48.7069 149.916 48.7069Z" fill="#3170F3"/>
<path d="M147.385 46.8092H134.102V48.0743H147.385V46.8092Z" fill="white"/>
<path opacity="0.07" d="M151.091 52.5022H133.559C132.81 52.5022 132.204 53.0451 132.204 53.7149V55.7174C132.204 56.3871 132.81 56.9301 133.559 56.9301H151.091C151.84 56.9301 152.446 56.3871 152.446 55.7174V53.7149C152.446 53.0451 151.84 52.5022 151.091 52.5022Z" fill="white"/>
<path d="M149.916 56.2975C150.614 56.2975 151.181 55.5895 151.181 54.7162C151.181 53.8428 150.614 53.1348 149.916 53.1348C149.217 53.1348 148.65 53.8428 148.65 54.7162C148.65 55.5895 149.217 56.2975 149.916 56.2975Z" fill="#3170F3"/>
<path d="M147.385 53.7673H134.102V55.0324H147.385V53.7673Z" fill="white"/>
<path opacity="0.07" d="M151.091 59.4603H133.559C132.81 59.4603 132.204 60.0808 132.204 60.8463V63.1348C132.204 63.9003 132.81 64.5208 133.559 64.5208H151.091C151.84 64.5208 152.446 63.9003 152.446 63.1348V60.8463C152.446 60.0808 151.84 59.4603 151.091 59.4603Z" fill="white"/>
<path d="M149.916 63.2557C150.614 63.2557 151.181 62.6893 151.181 61.9906C151.181 61.2919 150.614 60.7255 149.916 60.7255C149.217 60.7255 148.65 61.2919 148.65 61.9906C148.65 62.6893 149.217 63.2557 149.916 63.2557Z" fill="#3170F3"/>
<path d="M147.385 61.358H134.102V62.6231H147.385V61.358Z" fill="white"/>
<path opacity="0.07" d="M151.091 67.051H133.559C132.81 67.051 132.204 67.6715 132.204 68.437V70.7255C132.204 71.491 132.81 72.1115 133.559 72.1115H151.091C151.84 72.1115 152.446 71.491 152.446 70.7255V68.437C152.446 67.6715 151.84 67.051 151.091 67.051Z" fill="white"/>
<path d="M149.916 70.8464C150.614 70.8464 151.181 70.28 151.181 69.5813C151.181 68.8826 150.614 68.3162 149.916 68.3162C149.217 68.3162 148.65 68.8826 148.65 69.5813C148.65 70.28 149.217 70.8464 149.916 70.8464Z" fill="#3170F3"/>
<path d="M147.385 68.9487H134.102V70.2138H147.385V68.9487Z" fill="white"/>
<path d="M160.037 39.8511H153.079V44.9115H160.037V39.8511Z" fill="#78AEFF"/>
<path d="M155.848 43.6464H155.839C155.81 43.6447 155.782 43.6349 155.756 43.6177C155.731 43.6005 155.708 43.5762 155.691 43.5467L155.018 42.4393C154.986 42.386 154.971 42.3183 154.978 42.2512C154.984 42.1841 155.011 42.123 155.053 42.0815C155.094 42.0399 155.147 42.0213 155.2 42.0296C155.252 42.038 155.3 42.0726 155.332 42.126L155.86 42.9984L157.165 41.193C157.201 41.1456 157.251 41.118 157.302 41.1163C157.354 41.1146 157.404 41.1388 157.442 41.1838C157.48 41.2288 157.503 41.2911 157.506 41.3573C157.509 41.4235 157.491 41.4885 157.457 41.5384L155.994 43.5645C155.975 43.5903 155.952 43.6108 155.927 43.6249C155.902 43.639 155.875 43.6463 155.848 43.6464Z" fill="white"/>
<path opacity="0.31" d="M130.268 48.5368C130.268 48.5368 130.057 48.4929 129.675 48.0743C129.675 48.0743 129.621 48.8044 130.306 49.3395L130.268 48.5368Z" fill="#CE8172"/>
<path opacity="0.08" d="M135.367 54.3999C134.964 55.1741 134.327 55.8051 133.543 56.2047C132.759 56.6044 131.868 56.7527 130.994 56.6291L130.939 57.0566L134.957 57.5627L135.367 54.3999Z" fill="black"/>
<path d="M118.288 110.523C120.455 112.055 123.434 111.947 126.151 111.818C136.255 111.335 146.384 111.523 156.459 112.38C158.67 112.567 160.923 112.786 163.08 112.301C164.903 111.891 166.552 111.003 168.212 110.191C177.303 105.749 187.39 103.447 197.358 101.171C196.051 99.9006 193.967 99.7433 192.081 99.6721C186.779 99.4797 181.473 99.3623 176.164 99.3199C173.004 99.2936 169.824 99.2974 166.716 99.8088C163.5 100.339 160.405 101.405 157.269 102.286C150.35 104.23 143.187 105.266 136.023 106.044C133.038 106.366 130.013 106.499 127.1 107.155C126.174 107.372 118.334 110.557 118.288 110.523Z" fill="url(#paint0_linear)"/>
<path d="M163.874 95.7132C164.453 96.2945 164.864 97.0004 165.068 97.7658C165.513 99.4545 164.929 101.347 165.776 102.901C165.904 103.173 166.116 103.405 166.386 103.567C166.748 103.754 167.2 103.754 167.607 103.726C171.886 103.499 176.136 102.928 180.307 102.02C181.475 101.766 182.653 101.479 183.686 100.921C185.049 100.175 186.069 99.0216 187.057 97.8871C187.457 97.4621 187.798 96.994 188.074 96.4932C188.557 95.5229 188.52 94.4089 188.481 93.3434C188.443 92.4552 188.4 91.5464 188.044 90.7179C187.966 90.5011 187.825 90.3076 187.637 90.1581C187.415 90.0242 187.159 89.9457 186.894 89.9305C183.387 89.4826 179.886 90.5556 176.369 90.9269C174.506 91.0958 172.634 91.1463 170.764 91.0781C168.87 91.0351 166.162 90.8131 164.529 91.9084C163.987 92.2723 163.825 92.7575 163.568 93.3079C163.074 94.3716 162.987 94.825 163.874 95.7132Z" fill="#3170F3"/>
<path d="M163.874 95.7132C164.453 96.2945 164.864 97.0004 165.068 97.7658C165.513 99.4545 164.929 101.347 165.776 102.901C165.904 103.173 166.116 103.405 166.386 103.567C166.748 103.754 167.2 103.754 167.607 103.726C171.886 103.499 176.136 102.928 180.307 102.02C181.475 101.766 182.653 101.479 183.686 100.921C185.049 100.175 186.069 99.0216 187.057 97.8871C187.457 97.4621 187.798 96.994 188.074 96.4932C188.557 95.5229 188.52 94.4089 188.481 93.3434C188.443 92.4552 188.4 91.5464 188.044 90.7179C187.966 90.5011 187.825 90.3076 187.637 90.1581C187.415 90.0242 187.159 89.9457 186.894 89.9305C183.387 89.4826 179.886 90.5556 176.369 90.9269C174.506 91.0958 172.634 91.1463 170.764 91.0781C168.87 91.0351 166.162 90.8131 164.529 91.9084C163.987 92.2723 163.825 92.7575 163.568 93.3079C163.074 94.3716 162.987 94.825 163.874 95.7132Z" fill="url(#paint1_linear)"/>
<path d="M131.84 100.642C131.84 103.007 134.371 106.082 133.527 107.253C133.069 107.886 129.438 107.253 128.859 107.253C127.213 107.253 125.878 104.295 125.878 100.642C125.878 96.9884 127.213 94.0302 128.859 94.0302C129.477 94.0302 133.49 93.1934 133.965 93.9055C134.758 95.0956 131.84 98.3599 131.84 100.642Z" fill="#606161"/>
<path d="M133.153 106.902C134.725 106.902 136 104.07 136 100.577C136 97.083 134.725 94.251 133.153 94.251C131.581 94.251 130.307 97.083 130.307 100.577C130.307 104.07 131.581 106.902 133.153 106.902Z" fill="#606161"/>
<path d="M133.153 106.902C134.725 106.902 136 104.07 136 100.577C136 97.083 134.725 94.251 133.153 94.251C131.581 94.251 130.307 97.083 130.307 100.577C130.307 104.07 131.581 106.902 133.153 106.902Z" fill="url(#paint2_linear)"/>
<path d="M163.639 101.274C163.639 103.641 165.975 106.717 165.198 107.886C164.776 108.519 161.424 107.886 160.889 107.886C159.37 107.886 158.139 104.926 158.139 101.274C158.139 97.6224 159.37 94.6622 160.889 94.6622C161.459 94.6622 165.162 93.8253 165.602 94.5394C166.34 95.7276 163.639 98.992 163.639 101.274Z" fill="#606161"/>
<path d="M165.414 107.535C166.986 107.535 168.26 104.703 168.26 101.209C168.26 97.7156 166.986 94.8835 165.414 94.8835C163.842 94.8835 162.567 97.7156 162.567 101.209C162.567 104.703 163.842 107.535 165.414 107.535Z" fill="#606161"/>
<path d="M165.414 107.535C166.986 107.535 168.26 104.703 168.26 101.209C168.26 97.7156 166.986 94.8835 165.414 94.8835C163.842 94.8835 162.567 97.7156 162.567 101.209C162.567 104.703 163.842 107.535 165.414 107.535Z" fill="url(#paint3_linear)"/>
<path d="M165.414 105.637C166.636 105.637 167.628 103.513 167.628 100.893C167.628 98.2726 166.636 96.1486 165.414 96.1486C164.191 96.1486 163.2 98.2726 163.2 100.893C163.2 103.513 164.191 105.637 165.414 105.637Z" fill="url(#paint4_linear)"/>
<path d="M184.406 97.7795C184.406 99.6093 186.157 101.987 185.573 102.889C185.258 103.378 182.743 102.889 182.343 102.889C181.204 102.889 180.279 100.602 180.279 97.7795C180.279 94.9569 181.202 92.6714 182.343 92.6714C182.769 92.6714 185.549 92.025 185.878 92.5751C186.426 93.4937 184.406 96.0163 184.406 97.7795Z" fill="#606161"/>
<path d="M185.656 103.107C186.879 103.107 187.87 100.841 187.87 98.0463C187.87 95.2515 186.879 92.9858 185.656 92.9858C184.433 92.9858 183.442 95.2515 183.442 98.0463C183.442 100.841 184.433 103.107 185.656 103.107Z" fill="#606161"/>
<path d="M185.656 103.107C186.879 103.107 187.87 100.841 187.87 98.0463C187.87 95.2515 186.879 92.9858 185.656 92.9858C184.433 92.9858 183.442 95.2515 183.442 98.0463C183.442 100.841 184.433 103.107 185.656 103.107Z" fill="url(#paint5_linear)"/>
<path d="M185.655 101.842C186.529 101.842 187.237 100.142 187.237 98.0463C187.237 95.9502 186.529 94.251 185.655 94.251C184.782 94.251 184.074 95.9502 184.074 98.0463C184.074 100.142 184.782 101.842 185.655 101.842Z" fill="url(#paint6_linear)"/>
<path d="M189.134 90.3404L188.556 96.8976L188.001 99.0127C187.985 97.54 187.975 96.0784 187.829 94.6241C187.759 93.8362 187.629 93.0023 187.029 92.4298C186.701 92.0947 186.165 91.8885 185.714 92.0395C185.506 92.1241 185.32 92.2498 185.17 92.4077C184.212 93.3373 183.969 94.6977 183.797 95.9771C183.581 97.4646 183.365 98.9501 183.149 100.445C183.076 100.887 183.059 101.336 183.097 101.781C182.951 101.829 182.8 101.866 182.647 101.892C181.498 102.043 176.408 102.186 174.361 102.941C173.228 103.363 170.713 103.839 168.674 104.189C168.604 103.871 168.544 103.554 168.502 103.236C168.102 100.493 169.046 97.5916 168.06 94.9831C167.809 94.3001 167.317 93.5914 166.549 93.4883C165.78 93.3852 165.088 93.9503 164.612 94.5302C162.781 96.7006 162.073 99.5006 161.742 102.225C161.63 103.123 161.302 104.007 161.216 104.896C161.194 105.076 161.194 105.258 161.216 105.437C159.859 105.605 158.461 105.701 157.448 105.588C154.735 105.286 128.976 104.905 127.419 104.23C126.516 103.834 125.645 103.379 124.812 102.869C124.812 102.869 124.232 101.734 125.054 100.977C124.93 98.4048 125.438 95.84 126.541 93.4735C126.705 93.1054 126.895 92.7372 127.101 92.369C127.335 91.9603 127.595 91.5644 127.88 91.1835C130.385 87.8699 134.023 86.9145 136.538 84.0685C139.329 80.8967 145.154 77.6531 148.516 77.1211C151.878 76.5891 176.574 76.1344 180.756 77.1211C184.938 78.1078 185.19 79.4571 185.19 79.4571L187.565 84.5214C187.565 84.5214 188.724 86.2555 188.724 86.8593C188.724 87.4631 188.638 88.2179 188.638 88.2179L189.134 90.3404Z" fill="#3170F3"/>
<path opacity="0.6" d="M159.6 90.6757L162.015 88.5312C162.789 87.8387 163.59 87.1332 164.582 86.7449C165.731 86.297 167.02 86.3194 168.266 86.3231C174.725 86.337 181.161 85.6002 187.423 84.13L187.86 91.5493C187.882 91.9226 187.886 92.3388 187.611 92.6076C187.439 92.7517 187.232 92.8549 187.007 92.9081C185.888 93.2515 184.717 93.5128 183.726 94.1026C182.675 94.7279 181.897 95.6779 180.895 96.3685C178.378 98.0969 174.945 97.9158 171.827 97.6582C171.165 97.6041 170.481 97.5444 169.903 97.242C169.513 97.0386 169.193 96.7362 168.805 96.5309C167.397 95.7936 165.62 96.5309 164.393 97.4977C163.002 98.5953 161.906 99.9782 161.192 101.537C160.886 102.201 160.514 103.006 159.741 103.101C159.465 103.124 159.187 103.078 158.936 102.967C156.924 102.183 155.858 99.0096 155.637 97.13C155.321 94.5188 157.763 92.3145 159.6 90.6757Z" fill="#4169BD"/>
<path d="M139.268 81.7935C140.931 80.5206 144.669 78.7494 146.822 78.4621C147.947 78.3112 146.009 78.8858 158.098 78.9767C168.723 79.0586 168.41 78.4312 168.193 78.8295C167.363 80.3697 165.359 83.7283 164.529 85.2685C164.329 85.6558 164.098 86.0595 163.71 86.3086C163.248 86.605 162.643 86.625 162.077 86.6341C160.115 86.6614 158.15 86.6614 156.188 86.6596H145.543C144.079 86.6596 142.614 86.6596 141.152 86.6214C139.869 86.5887 138.246 86.7196 137.021 86.3414C134.138 85.4467 138.159 82.639 139.268 81.7935Z" fill="#010101"/>
<path d="M174.574 86.7226C174.599 86.8354 174.583 86.9532 174.528 87.0562C174.444 87.1457 174.328 87.2027 174.202 87.2165C172.037 87.7141 169.789 88.2098 167.626 87.7308C167.094 87.6134 166.5 87.3581 166.376 86.8568C166.337 86.5688 166.382 86.2762 166.506 86.0107C167.033 84.5533 167.567 83.0828 168.401 81.7596C168.946 80.8552 169.672 80.0602 170.539 79.4188C171.482 78.7572 172.027 79.0815 172.533 80.0059C173.656 82.0596 174.308 84.434 174.574 86.7226Z" fill="black"/>
<path d="M173.943 80.6691L174.404 81.9829C174.588 82.5069 174.774 83.031 174.915 83.5662C175.147 84.4353 175.273 85.3262 175.289 86.2217C175.289 86.3833 175.317 86.5803 175.475 86.6435C175.558 86.6658 175.645 86.6658 175.728 86.6435L178.724 86.1975L180.052 86.0117C180.358 85.9652 180.711 85.889 180.851 85.6289C180.903 85.5113 180.922 85.3833 180.905 85.2572C180.862 84.8742 180.772 84.4971 180.638 84.1329L180.288 83.0588C179.827 81.641 179.355 80.2045 178.508 78.9502C178.416 78.7838 178.278 78.6428 178.109 78.5413C177.932 78.4706 177.74 78.44 177.548 78.4521C176.361 78.4391 175.123 78.402 173.953 78.5302C173.523 78.5766 173.216 78.6937 173.354 79.123C173.487 79.6377 173.761 80.1506 173.943 80.6691Z" fill="#010101"/>
<path d="M181.078 82.165C181.536 83.3695 181.761 84.6315 182.016 85.8809C182.017 85.9047 182.024 85.928 182.035 85.9496C182.047 85.9711 182.063 85.9904 182.083 86.0064C182.13 86.0285 182.185 86.0337 182.237 86.0207C182.833 85.9347 184.982 85.318 185.518 85.3216C185.611 85.3301 185.706 85.3171 185.791 85.284C185.853 85.2491 185.902 85.2 185.933 85.1421C185.965 85.0841 185.977 85.0197 185.969 84.9559C185.951 84.8292 185.911 84.7054 185.853 84.5885C185.573 83.9091 184.94 81.0034 182.053 79.659C181.656 79.5112 181.246 79.3913 180.827 79.3005C180.59 79.2288 179.955 78.942 179.716 79.1356C179.477 79.3292 179.92 79.8042 180.034 80.0103C180.438 80.7066 180.787 81.4265 181.078 82.165Z" fill="black"/>
<path d="M132.204 94.8835C130.68 93.8869 128.772 93.8869 126.974 93.8351C126.83 93.8473 126.687 93.8071 126.569 93.7215C126.546 93.6992 126.527 93.6737 126.511 93.6458C126.669 93.2472 126.851 92.8485 127.049 92.4499C127.273 92.0074 127.523 91.5788 127.795 91.1664C128.202 90.995 128.575 91.1146 129.079 91.4335C130.398 92.2586 131.327 93.584 132.204 94.8835Z" fill="white"/>
<path d="M145.586 94.7293C147.08 94.0947 148.596 93.5178 150.133 92.9985C150.724 92.7895 151.327 92.6136 151.94 92.4718C152.604 92.3367 153.275 92.2362 153.95 92.1708L157.784 91.7268C157.904 91.7136 158.054 91.7136 158.114 91.8133C158.141 91.8686 158.146 91.9313 158.13 91.9902C158.054 92.3533 157.766 92.6354 157.489 92.8951L156.251 94.0633C155.73 94.5543 155.186 95.0604 154.498 95.305C153.992 95.4593 153.463 95.5299 152.932 95.5138C151.362 95.5326 149.801 95.3708 148.237 95.2805C147.446 95.2372 146.655 95.209 145.865 95.2316C145.704 95.2316 144.928 95.3746 144.86 95.2034C144.793 95.0322 145.445 94.7876 145.586 94.7293Z" fill="white"/>
<path d="M128.409 101.79C128.038 102.189 127.6 102.505 127.078 102.472C126.81 102.43 126.552 102.346 126.312 102.223C125.614 101.89 124.79 101.765 124.646 100.967C124.511 100.21 124.815 99.303 125.23 98.6788C126.244 99.4164 127.16 100.278 127.955 101.243C128.105 101.416 128.253 101.607 128.409 101.79Z" fill="#1551AC"/>
<path d="M149.916 102.289C149.401 102.461 148.874 102.607 148.339 102.726C146.26 103.177 144.095 103.125 141.955 103.074C138.484 102.984 135.014 102.898 131.548 102.818C130.777 102.796 129.96 102.773 129.294 102.435C128.958 102.253 128.658 102.024 128.409 101.758C128.549 101.622 128.681 101.479 128.803 101.336C128.838 101.3 128.864 101.262 128.901 101.223C129.443 100.593 130.013 99.9311 130.819 99.5463C131.514 99.2154 132.311 99.1179 133.099 99.0361C136.084 98.7334 139.091 98.6228 142.095 98.7052C143.006 98.7144 143.914 98.8001 144.806 98.9612C146.36 99.2896 147.755 100.028 148.793 101.073C148.944 101.223 149.084 101.382 149.224 101.54C149.451 101.801 149.67 102.057 149.916 102.289Z" fill="#1551AC"/>
<path d="M149.916 100.999C149.689 101.074 149.451 101.148 149.224 101.209C149.084 101.051 148.944 100.894 148.793 100.745C147.755 99.7057 146.36 98.9709 144.806 98.6444C143.914 98.4841 143.006 98.3989 142.095 98.3898C139.091 98.3078 136.084 98.4178 133.099 98.7188C132.311 98.8002 131.514 98.892 130.819 99.2262C130.007 99.6089 129.443 100.265 128.901 100.894C128.721 100.769 128.557 100.629 128.409 100.477C128.549 100.341 128.681 100.199 128.803 100.057C129.382 99.3907 129.968 98.6807 130.819 98.2772C131.514 97.9482 132.311 97.8512 133.099 97.7681C136.084 97.4688 139.091 97.3589 142.095 97.4391C143.006 97.449 143.914 97.5343 144.806 97.6937C146.36 98.0216 147.755 98.7568 148.793 99.796C149.179 100.184 149.522 100.625 149.916 100.999Z" fill="#0F4393"/>
<path d="M158.139 99.9441C157.928 100.744 157.553 101.508 157.029 102.203C156.855 102.46 156.605 102.677 156.303 102.833C156.035 102.936 155.744 102.993 155.448 103.002C154.547 103.075 153.641 103.11 152.735 103.104C152.212 103.12 151.69 103.059 151.193 102.923C150.696 102.75 150.258 102.481 149.916 102.137C152.656 101.288 155.236 99.9306 158.139 99.9441Z" fill="#1551AC"/>
<path d="M179.421 88.8264C181.519 88.2781 183.692 87.6929 185.838 88.0196C186.275 88.0857 186.741 88.214 187.008 88.5484C187.354 88.9839 187.249 89.6021 187.077 90.1251C186.957 90.4867 186.789 90.8717 186.443 91.0544C186.183 91.1666 185.896 91.2122 185.612 91.1866C181.385 91.1477 176.966 90.5528 173.08 92.147C171.789 92.6759 170.569 93.4458 169.177 93.6168C168.655 93.681 168.96 91.7776 169.235 91.5132C169.842 90.93 171.172 90.8697 171.949 90.6831C174.443 90.0862 176.94 89.4777 179.421 88.8264Z" fill="#717171"/>
<path d="M166.311 88.0031C166.451 88.0044 166.588 88.0393 166.709 88.1041C166.894 88.2249 166.932 88.4539 166.956 88.6595C167.023 89.2383 167.057 89.9037 166.603 90.3148C166.317 90.5726 165.903 90.6646 165.509 90.7476L164.564 90.9441C164.079 91.0451 163.57 91.1461 163.084 91.0487C162.157 90.8684 160.621 89.4006 161.636 88.6216C162.722 87.7849 164.998 87.8859 166.311 88.0031Z" fill="#3170F3"/>
<path d="M153.766 91.4191C152.171 91.7226 150.518 91.7291 148.879 91.7178C144.194 91.6853 139.51 91.5213 134.828 91.359C133.608 91.3168 132.386 91.273 131.172 91.1577C130.541 91.0976 129.764 90.9028 129.681 90.385C129.635 90.1042 129.831 89.8363 130.031 89.6042C131.452 87.9621 133.467 86.7299 135.791 86.0832C135.935 86.0309 136.095 86.0151 136.25 86.0378C136.447 86.0832 136.56 86.2342 136.69 86.3624C137.363 87.0118 138.529 87.0881 139.567 87.101C144.196 87.1579 148.821 86.8998 153.444 86.7407C155.789 86.6595 158.136 86.6043 160.483 86.627C161.274 86.627 162.251 86.5183 161.836 87.3868C161.557 87.9728 160.424 88.4857 159.839 88.8477C158.022 89.9905 156.017 90.9905 153.766 91.4191Z" fill="url(#paint7_linear)"/>
<path d="M174.214 100.379C173.211 100.553 172.185 100.695 171.222 101.005C171.068 101.04 170.932 101.12 170.837 101.231C170.695 101.443 170.899 101.73 171.168 101.81C171.447 101.865 171.739 101.848 172.006 101.76C173.998 101.284 175.966 100.741 177.909 100.13C179.345 99.6779 181.184 99.144 182.177 98.0831C181.517 97.817 179.249 99.0726 178.483 99.3179C177.093 99.7649 175.666 100.12 174.214 100.379Z" fill="#4B4B4B"/>
<path d="M38.5857 108.8H37.9531V115.758H38.5857V108.8Z" fill="url(#paint8_linear)"/>
<path d="M185.185 87.9254H186.758C187.372 87.9254 187.869 88.3414 187.869 88.8545V89.5265C187.869 90.0397 187.372 90.4556 186.758 90.4556H185.185C184.571 90.4556 184.074 90.0397 184.074 89.5265V88.8545C184.074 88.3414 184.571 87.9254 185.185 87.9254Z" fill="url(#paint9_linear)"/>
<path d="M185.972 83.4975C183.876 83.4975 182.176 81.5151 182.176 79.0696C182.176 76.6242 183.876 74.6417 185.972 74.6417C188.068 74.6417 189.767 76.6242 189.767 79.0696C189.767 81.5151 188.068 83.4975 185.972 83.4975Z" fill="url(#paint10_linear)"/>
<path d="M193.142 100.576H198.355C198.824 100.576 199.273 100.354 199.604 99.9608C199.935 99.5672 200.121 99.0335 200.122 98.4769V94.8827C200.122 94.6181 200.211 94.3644 200.368 94.177C200.525 93.9896 200.738 93.8838 200.961 93.8826H204.455C204.518 93.8874 204.582 93.8768 204.641 93.8514C204.701 93.8259 204.756 93.7862 204.802 93.7347C204.848 93.6832 204.885 93.6209 204.91 93.5518C204.935 93.4827 204.948 93.4082 204.948 93.3329C204.948 93.2576 204.935 93.1831 204.91 93.114C204.885 93.0449 204.848 92.9826 204.802 92.9311C204.756 92.8796 204.701 92.8399 204.641 92.8144C204.582 92.789 204.518 92.7783 204.455 92.7832H200.961C200.493 92.7844 200.045 93.006 199.714 93.3996C199.383 93.7931 199.197 94.3265 199.197 94.8827V98.4769C199.196 98.7417 199.107 98.9955 198.95 99.1826C198.792 99.3697 198.578 99.4747 198.355 99.4747H193.142C192.92 99.4747 192.706 99.3697 192.548 99.1826C192.391 98.9955 192.302 98.7417 192.301 98.4769C192.301 97.9202 192.114 97.3865 191.783 96.9929C191.452 96.5993 191.003 96.3779 190.535 96.3773H187.738C187.515 96.3767 187.301 96.2711 187.143 96.0837C186.986 95.8963 186.897 95.6422 186.896 95.3772V89.706C186.889 89.5663 186.837 89.4353 186.751 89.3395C186.665 89.2437 186.552 89.1904 186.434 89.1904C186.316 89.1904 186.203 89.2437 186.117 89.3395C186.031 89.4353 185.979 89.5663 185.972 89.706V95.3772C185.972 95.9338 186.158 96.4675 186.489 96.8611C186.82 97.2548 187.269 97.4761 187.738 97.4767H190.543C190.766 97.4773 190.979 97.5829 191.137 97.7703C191.295 97.9578 191.383 98.2118 191.384 98.4769C191.384 99.032 191.57 99.5643 191.899 99.9577C192.229 100.351 192.676 100.573 193.142 100.576Z" fill="url(#paint11_linear)"/>
<path d="M29.08 82.2323L26.9244 82.1105C26.9244 82.1105 24.9598 76.5153 30.2443 72.4675C35.5288 68.4197 31.5978 78.0323 37.9531 79.2287L29.08 82.2323Z" fill="#3170F3"/>
<path d="M60.4011 81.7193C60.4011 81.7193 62.5919 80.1597 66.4185 81.5325L56.5349 89.8231C56.5349 89.8231 54.8616 85.5397 60.4011 81.7193Z" fill="#3170F3"/>
<path opacity="0.46" d="M60.4011 81.7193C60.4011 81.7193 62.5919 80.1597 66.4185 81.5325L56.5349 89.8231C56.5349 89.8231 54.8616 85.5397 60.4011 81.7193Z" fill="white"/>
<path opacity="0.46" d="M64.4234 78.5929L71.0235 77.8044L71.479 79.8403L66.9039 80.4066C64.8775 80.6547 62.9643 81.4195 61.376 82.6164C60.467 83.303 59.5579 84.7077 58.4499 85.0538L50.352 86.6602L49.9721 83.8952L64.4234 78.5929Z" fill="white"/>
<path d="M64.5211 97.4137C60.3289 97.4137 56.9305 94.2984 56.9305 90.4556C56.9305 86.6127 60.3289 83.4974 64.5211 83.4974C68.7134 83.4974 72.1118 86.6127 72.1118 90.4556C72.1118 94.2984 68.7134 97.4137 64.5211 97.4137Z" fill="#24285B"/>
<path opacity="0.09" d="M64.5208 94.8835C62.0754 94.8835 60.0929 93.0427 60.0929 90.7719C60.0929 88.5011 62.0754 86.6603 64.5208 86.6603C66.9663 86.6603 68.9487 88.5011 68.9487 90.7719C68.9487 93.0427 66.9663 94.8835 64.5208 94.8835Z" fill="white"/>
<path d="M64.8371 93.6183C63.265 93.6183 61.9906 92.4855 61.9906 91.0881C61.9906 89.6907 63.265 88.5579 64.8371 88.5579C66.4092 88.5579 67.6836 89.6907 67.6836 91.0881C67.6836 92.4855 66.4092 93.6183 64.8371 93.6183Z" fill="white"/>
<path d="M64.4234 78.5929L71.0235 77.8044L71.479 79.8403L66.9039 80.4066C64.8775 80.6547 62.9643 81.4195 61.376 82.6164C60.467 83.303 59.5579 84.7077 58.4499 85.0538L50.352 86.6602L49.9721 83.8952L64.4234 78.5929Z" fill="#3170F3"/>
<path opacity="0.15" d="M64.4234 78.5929L71.0235 77.8044L71.479 79.8403L66.9039 80.4066C64.8775 80.6547 62.9643 81.4195 61.376 82.6164C60.467 83.303 59.5579 84.7077 58.4499 85.0538L50.352 86.6602L49.9721 83.8952L64.4234 78.5929Z" fill="black"/>
<path d="M58.6895 86.1792L57.8215 88.6735L51.2253 93.6183L48.7067 87.9797L49.5549 83.7626L56.0101 82.8873C56.431 82.8302 56.8595 82.8824 57.2546 83.0388C57.6497 83.1953 57.9983 83.4508 58.267 83.781C58.5358 84.1111 58.7157 84.505 58.7897 84.9248C58.8636 85.3447 58.8292 85.7765 58.6895 86.1792Z" fill="#24285B"/>
<path d="M51.8694 90.9938C51.8694 90.9938 56.3864 87.048 62.3834 86.0539C62.6191 86.0154 62.861 86.0194 63.095 86.0658C63.3291 86.1122 63.5506 86.2 63.7469 86.3241C63.9432 86.4483 64.1103 86.6064 64.2386 86.7892C64.3669 86.9721 64.4539 87.1761 64.4945 87.3894C64.5739 87.8087 64.47 88.2395 64.2045 88.5907C63.9391 88.942 63.5329 89.1863 63.0719 89.2721C60.6403 89.7262 56.1272 90.8812 52.7122 93.6184L51.8694 90.9938Z" fill="#3170F3"/>
<path opacity="0.46" d="M51.8694 90.9938C51.8694 90.9938 56.3864 87.048 62.3834 86.0539C62.6191 86.0154 62.861 86.0194 63.095 86.0658C63.3291 86.1122 63.5506 86.2 63.7469 86.3241C63.9432 86.4483 64.1103 86.6064 64.2386 86.7892C64.3669 86.9721 64.4539 87.1761 64.4945 87.3894C64.5739 87.8087 64.47 88.2395 64.2045 88.5907C63.9391 88.942 63.5329 89.1863 63.0719 89.2721C60.6403 89.7262 56.1272 90.8812 52.7122 93.6184L51.8694 90.9938Z" fill="white"/>
<path d="M58.1675 78.2506C58.1675 78.2506 57.2481 75.444 60.9196 74.9158C62.5876 74.6969 64.2733 74.6089 65.958 74.6526C66.1816 74.6573 66.3985 74.7225 66.5807 74.8399C66.7629 74.9572 66.9021 75.1212 66.9802 75.3108C67.0584 75.5004 67.072 75.7068 67.0192 75.9034C66.9664 76.1 66.8497 76.2778 66.6842 76.4139C64.6257 78.107 61.3773 80.6302 59.3452 81.4749C56.1884 82.789 48.3735 85.5716 50.1289 88.7923C51.8843 92.013 55.1184 93.3565 54.6689 94.9705C54.3292 96.1925 44.6165 96.1944 39.8995 96.1244C39.2343 96.1138 38.5963 95.8834 38.1058 95.4765C37.6154 95.0697 37.3063 94.5147 37.2369 93.916C36.8301 90.6806 35.3452 84.7472 29.7271 83.0061C29.5567 82.9525 29.4069 82.8555 29.2959 82.7268C29.1849 82.5981 29.1172 82.4431 29.1011 82.2805C29.085 82.1179 29.1211 81.9545 29.2051 81.81C29.2891 81.6655 29.4174 81.5459 29.5746 81.4657L34.9384 78.7052C34.9384 78.7052 47.2486 73.4895 50.3852 80.5253L58.1675 78.2506Z" fill="#3170F3"/>
<path d="M58.2009 77.3822C58.2009 77.3822 60.4457 78.1502 58.9417 79.8889C58.0811 80.8863 54.657 81.6592 51.8844 82.1396C50.8037 82.3274 49.6781 82.2284 48.6708 81.8568C47.6635 81.4853 46.8269 80.8606 46.2824 80.0734L44.2791 77.1745C44.2791 77.1745 49.7065 77.0215 50.6645 79.0694C51.6226 81.1173 54.4276 76.955 58.2009 77.3822Z" fill="#24285B"/>
<path d="M27.8322 97.4137C23.64 97.4137 20.2415 94.2984 20.2415 90.4556C20.2415 86.6127 23.64 83.4974 27.8322 83.4974C32.0244 83.4974 35.4229 86.6127 35.4229 90.4556C35.4229 94.2984 32.0244 97.4137 27.8322 97.4137Z" fill="#24285B"/>
<path opacity="0.09" d="M27.8328 94.8835C25.3874 94.8835 23.405 93.0427 23.405 90.7719C23.405 88.5011 25.3874 86.6603 27.8328 86.6603C30.2783 86.6603 32.2607 88.5011 32.2607 90.7719C32.2607 93.0427 30.2783 94.8835 27.8328 94.8835Z" fill="white"/>
<path d="M27.5163 93.6183C25.9442 93.6183 24.6698 92.4855 24.6698 91.0881C24.6698 89.6907 25.9442 88.5579 27.5163 88.5579C29.0884 88.5579 30.3628 89.6907 30.3628 91.0881C30.3628 92.4855 29.0884 93.6183 27.5163 93.6183Z" fill="white"/>
<path d="M27.5775 91.7207C27.7523 91.7208 27.9242 91.6777 28.0764 91.5958C28.2285 91.5139 28.3557 91.3959 28.4456 91.2533L34.0143 82.4237C34.1523 82.2048 34.1931 81.9428 34.1278 81.6953C34.0625 81.4479 33.8965 81.2352 33.6663 81.104C33.4361 80.9729 33.1605 80.9341 32.9001 80.9962C32.6398 81.0582 32.4161 81.216 32.2782 81.4349L26.7114 90.2645C26.6195 90.4104 26.5699 90.5768 26.5676 90.7468C26.5653 90.9168 26.6105 91.0843 26.6986 91.2323C26.7866 91.3803 26.9143 91.5035 27.0687 91.5893C27.2231 91.6751 27.3986 91.7204 27.5775 91.7207Z" fill="#3170F3"/>
<path opacity="0.46" d="M27.5775 91.7207C27.7523 91.7208 27.9242 91.6777 28.0764 91.5958C28.2285 91.5139 28.3557 91.3959 28.4456 91.2533L34.0143 82.4237C34.1523 82.2048 34.1931 81.9428 34.1278 81.6953C34.0625 81.4479 33.8965 81.2352 33.6663 81.104C33.4361 80.9729 33.1605 80.9341 32.9001 80.9962C32.6398 81.0582 32.4161 81.216 32.2782 81.4349L26.7114 90.2645C26.6195 90.4104 26.5699 90.5768 26.5676 90.7468C26.5653 90.9168 26.6105 91.0843 26.6986 91.2323C26.7866 91.3803 26.9143 91.5035 27.0687 91.5893C27.2231 91.6751 27.3986 91.7204 27.5775 91.7207Z" fill="white"/>
<path d="M48.1296 90.0477L48.235 90.1717C48.4983 90.4784 48.6582 90.8403 48.6975 91.2185C48.7368 91.5967 48.6541 91.9768 48.4581 92.318C48.2622 92.6593 47.9605 92.9487 47.5854 93.1551C47.2104 93.3616 46.7762 93.4773 46.3295 93.4899L41.7545 93.6173C41.2041 93.6318 40.6639 93.4889 40.2203 93.2117C39.7767 92.9345 39.4554 92.5389 39.3078 92.0882C39.2104 91.7892 39.1926 91.4756 39.2557 91.1701C39.3187 90.8645 39.4611 90.5747 39.6725 90.3218C39.8839 90.0688 40.159 89.8591 40.4777 89.7077C40.7965 89.5563 41.1509 89.4672 41.5153 89.4467L45.9748 89.1953C46.3895 89.1712 46.8046 89.2368 47.1814 89.3858C47.5581 89.5349 47.8844 89.7626 48.1296 90.0477Z" fill="#3170F3"/>
<path opacity="0.15" d="M48.1296 90.0477L48.235 90.1717C48.4983 90.4784 48.6582 90.8403 48.6975 91.2185C48.7368 91.5967 48.6541 91.9768 48.4581 92.318C48.2622 92.6593 47.9605 92.9487 47.5854 93.1551C47.2104 93.3616 46.7762 93.4773 46.3295 93.4899L41.7545 93.6173C41.2041 93.6318 40.6639 93.4889 40.2203 93.2117C39.7767 92.9345 39.4554 92.5389 39.3078 92.0882C39.2104 91.7892 39.1926 91.4756 39.2557 91.1701C39.3187 90.8645 39.4611 90.5747 39.6725 90.3218C39.8839 90.0688 40.159 89.8591 40.4777 89.7077C40.7965 89.5563 41.1509 89.4672 41.5153 89.4467L45.9748 89.1953C46.3895 89.1712 46.8046 89.2368 47.1814 89.3858C47.5581 89.5349 47.8844 89.7626 48.1296 90.0477Z" fill="black"/>
<path d="M36.3717 79.7021C35.4984 79.7021 34.7903 78.9941 34.7903 78.1207C34.7903 77.2473 35.4984 76.5393 36.3717 76.5393C37.2451 76.5393 37.9531 77.2473 37.9531 78.1207C37.9531 78.9941 37.2451 79.7021 36.3717 79.7021Z" fill="#24285B"/>
<path opacity="0.03" d="M41.2109 79.786C41.9173 79.6323 42.6504 79.6907 43.3268 79.9547C44.0032 80.2187 44.5957 80.6776 45.0367 81.2791C45.5038 81.9368 45.7597 82.7375 45.3081 83.579C44.5755 84.9455 42.1547 85.973 40.5422 86.5245C40.0967 86.6778 39.6202 86.7018 39.1629 86.594C38.7056 86.4861 38.2842 86.2504 37.9432 85.9117L36.5148 84.4941C36.3636 84.3444 36.2446 84.1624 36.1655 83.9602C36.0865 83.7581 36.0493 83.5405 36.0565 83.322C36.0636 83.1035 36.1149 82.8892 36.207 82.6933C36.2991 82.4974 36.4298 82.3244 36.5904 82.186C37.604 81.3036 39.2126 80.1986 41.2109 79.786Z" fill="black"/>
<path opacity="0.69" d="M29.3039 74.0092C29.3039 74.0092 34.5188 77.3764 26.6338 80.3347C26.6338 80.3347 25.8999 76.7919 29.3039 74.0092Z" fill="white"/>
<path d="M135.972 24.4483C135.948 24.4782 135.793 24.6745 135.629 24.8839C135.465 25.0934 135.198 25.434 135.036 25.6411C134.874 25.8479 134.726 26.0403 134.709 26.0693C134.608 26.2379 134.511 26.5389 134.501 26.7096C134.496 26.8047 134.534 26.8745 134.649 26.9866C134.68 27.0161 134.713 27.0486 134.722 27.0584C134.739 27.0745 134.717 27.1475 134.29 28.497C134.043 29.2787 133.841 29.9235 133.841 29.9311C133.841 29.9379 133.848 29.9503 133.857 29.9574C133.871 29.9688 133.868 29.9845 133.825 30.0977L133.778 30.2252L133.735 30.2398C133.674 30.26 133.641 30.3012 133.584 30.4276C133.541 30.524 133.486 30.7051 133.468 30.8122C133.461 30.8543 133.461 30.8562 133.493 30.9006C133.66 31.1373 134.014 31.2837 134.308 31.2396C134.445 31.2186 134.429 31.2297 134.495 31.108C134.628 30.8611 134.682 30.6648 134.636 30.5896C134.627 30.5734 134.615 30.5553 134.609 30.5501C134.603 30.5437 134.619 30.4892 134.652 30.4023C134.702 30.2658 134.703 30.2643 134.735 30.2573C134.754 30.2532 134.768 30.2456 134.769 30.2396C134.77 30.2334 134.859 30.2519 134.981 30.2843C135.668 30.4668 136.347 30.6233 136.751 30.6918C136.895 30.7163 136.897 30.7164 136.925 30.6947C137.021 30.6164 137.207 30.1584 137.452 29.3953C137.614 28.8957 137.783 28.3247 137.875 27.9778C137.882 27.951 137.895 27.8498 137.904 27.7522L137.92 27.5753L137.998 27.3929C138.174 26.9842 138.262 26.6658 138.249 26.4842C138.244 26.4333 138.233 26.3938 138.17 26.2241C138.097 26.0295 138.094 26.0185 138.048 25.7897C138.023 25.6601 138.001 25.5465 137.999 25.5368C137.997 25.5268 138.016 25.4868 138.04 25.449C138.124 25.3163 138.155 25.2039 138.128 25.1365C138.124 25.1266 138.124 25.1167 138.129 25.1147C138.134 25.1127 138.196 25.0329 138.268 24.9375C138.406 24.7519 138.403 24.7611 138.363 24.7198C138.355 24.7113 138.364 24.7 138.402 24.6692C138.882 24.2873 139.354 23.955 139.703 23.7553C139.896 23.6452 140.05 23.573 140.186 23.53C140.506 23.4287 140.999 23.3495 141.622 23.2991C141.79 23.2853 141.798 23.2839 141.813 23.2636C141.845 23.2171 141.873 23.1271 141.877 23.0594C141.882 22.9651 141.867 22.8947 141.823 22.8033C141.781 22.7153 141.768 22.6975 141.748 22.6999C141.739 22.7016 141.639 22.7097 141.524 22.7189C140.87 22.7716 140.335 22.8639 140.021 22.9772C139.615 23.1254 138.917 23.5438 138.135 24.1083C137.989 24.2138 137.98 24.2194 137.964 24.2094C137.946 24.1985 137.904 24.2158 137.671 24.3299L137.599 24.3648L137.571 24.3396C137.492 24.2657 137.444 24.2544 137.347 24.2862C137.239 24.3206 137.09 24.4214 136.951 24.5549L136.89 24.6121L136.797 24.608C136.712 24.6041 136.698 24.6002 136.643 24.568C136.388 24.4179 136.145 24.3414 136.049 24.3808C136.027 24.3894 136.001 24.4124 135.972 24.4483ZM136.183 27.263C136.346 27.3045 136.489 27.3424 136.5 27.3473C136.518 27.3554 136.766 27.5957 136.762 27.6018C136.761 27.6033 136.682 27.6277 136.586 27.6572C136.491 27.6866 136.395 27.7189 136.373 27.7307C136.325 27.7548 136.235 27.8431 136.195 27.9048C136.139 27.9907 136.095 28.1042 136.079 28.2123C136.072 28.2516 136.075 28.3059 136.136 29.251C136.157 29.5721 136.172 29.8359 136.172 29.8379C136.17 29.8405 135.163 29.2436 135.133 29.2214C135.117 29.2106 135.144 29.1268 135.429 28.2757L135.743 27.3421L135.806 27.2687C135.84 27.228 135.873 27.1936 135.877 27.192C135.881 27.1891 136.019 27.2222 136.183 27.263ZM136.794 28.0785L137.019 28.0692L137.022 28.1104C137.023 28.1327 137.024 28.1519 137.022 28.1525C137.02 28.1532 136.996 28.1536 136.967 28.1549C136.937 28.1554 136.912 28.159 136.91 28.1624C136.908 28.1662 136.934 28.3015 136.966 28.4628C136.999 28.6245 137.026 28.7622 137.026 28.7698C137.026 28.7813 136.81 29.5591 136.798 29.592C136.792 29.6066 136.484 29.7868 136.472 29.7827C136.469 29.7813 136.443 29.4487 136.416 29.0432C136.359 28.2201 136.358 28.2589 136.435 28.1719C136.501 28.0964 136.529 28.0895 136.794 28.0785Z" fill="#3170F3"/>
<defs>
<linearGradient id="paint0_linear" x1="29344.8" y1="5382.5" x2="29257.5" y2="-1910.94" gradientUnits="userSpaceOnUse">
<stop stop-color="#010101" stop-opacity="0"/>
<stop offset="0.95" stop-color="#010101"/>
</linearGradient>
<linearGradient id="paint1_linear" x1="11707.1" y1="3372.25" x2="11691.6" y2="4421.92" gradientUnits="userSpaceOnUse">
<stop stop-color="#010101" stop-opacity="0"/>
<stop offset="0.95" stop-color="#010101"/>
</linearGradient>
<linearGradient id="paint2_linear" x1="1375.37" y1="3808.75" x2="1534.09" y2="3808.75" gradientUnits="userSpaceOnUse">
<stop stop-color="#010101" stop-opacity="0"/>
<stop offset="0.95" stop-color="#010101"/>
</linearGradient>
<linearGradient id="paint3_linear" x1="2269.83" y1="3832.15" x2="2556.91" y2="3840.48" gradientUnits="userSpaceOnUse">
<stop stop-color="#010101" stop-opacity="0"/>
<stop offset="0.95" stop-color="#010101"/>
</linearGradient>
<linearGradient id="paint4_linear" x1="166.872" y1="91.1673" x2="162.977" y2="126.859" gradientUnits="userSpaceOnUse">
<stop stop-color="white" stop-opacity="0"/>
<stop offset="0.95" stop-color="white"/>
</linearGradient>
<linearGradient id="paint5_linear" x1="2294.35" y1="2911.96" x2="2470.42" y2="2916.94" gradientUnits="userSpaceOnUse">
<stop stop-color="#010101" stop-opacity="0"/>
<stop offset="0.95" stop-color="#010101"/>
</linearGradient>
<linearGradient id="paint6_linear" x1="1766.51" y1="1896.2" x2="1438.92" y2="2963.12" gradientUnits="userSpaceOnUse">
<stop stop-color="white" stop-opacity="0"/>
<stop offset="0.95" stop-color="white"/>
</linearGradient>
<linearGradient id="paint7_linear" x1="10787.5" y1="1178.69" x2="10625.1" y2="2946.01" gradientUnits="userSpaceOnUse">
<stop stop-color="#344B79"/>
<stop offset="0.95" stop-color="#3170F3"/>
</linearGradient>
<linearGradient id="paint8_linear" x1="262.549" y1="1014.82" x2="490.333" y2="1014.48" gradientUnits="userSpaceOnUse">
<stop stop-color="#010101" stop-opacity="0"/>
<stop offset="0.95" stop-color="#010101"/>
</linearGradient>
<linearGradient id="paint9_linear" x1="-1138.49" y1="369.97" x2="-1140.48" y2="453.552" gradientUnits="userSpaceOnUse">
<stop offset="0.01"/>
<stop offset="0.13" stop-opacity="0.69"/>
<stop offset="1" stop-opacity="0"/>
</linearGradient>
<linearGradient id="paint10_linear" x1="-2459.76" y1="931.262" x2="-2494.86" y2="295.93" gradientUnits="userSpaceOnUse">
<stop offset="0.01"/>
<stop offset="0.13" stop-opacity="0.69"/>
<stop offset="1" stop-opacity="0"/>
</linearGradient>
<linearGradient id="paint11_linear" x1="-5657.52" y1="2333.26" x2="-5687.54" y2="3734.65" gradientUnits="userSpaceOnUse">
<stop offset="0.01"/>
<stop offset="0.13" stop-opacity="0.69"/>
<stop offset="1" stop-opacity="0"/>
</linearGradient>
</defs>
</svg>
