<svg width="307" height="231" viewBox="0 0 307 231" fill="none" xmlns="http://www.w3.org/2000/svg">
<path opacity="0.45" d="M156.578 211.646C224.411 211.646 279.401 205.011 279.401 196.827C279.401 188.643 224.411 182.008 156.578 182.008C88.7444 182.008 33.7546 188.643 33.7546 196.827C33.7546 205.011 88.7444 211.646 156.578 211.646Z" fill="#E6E6E6"/>
<path d="M235.853 163.979H191.391V178.055H235.853V163.979Z" fill="#E6E6E6"/>
<path d="M253.812 178.3H191.391V192.375H253.812V178.3Z" fill="#C9C9C9"/>
<path d="M217.932 35.2302H90.0354V196.82H217.932V35.2302Z" fill="#24285B"/>
<path opacity="0.07" d="M200.003 43.222H107.703C103.765 43.222 100.573 46.4089 100.573 50.3402V62.0941C100.573 66.0254 103.765 69.2123 107.703 69.2123H200.003C203.941 69.2123 207.133 66.0254 207.133 62.0941V50.3402C207.133 46.4089 203.941 43.222 200.003 43.222Z" fill="white"/>
<path d="M185.136 25.9512H120.037V35.2302H185.136V25.9512Z" fill="#3170F3"/>
<path d="M194.853 63.1975C198.697 63.1975 201.814 60.086 201.814 56.2478C201.814 52.4096 198.697 49.2981 194.853 49.2981C191.008 49.2981 187.892 52.4096 187.892 56.2478C187.892 60.086 191.008 63.1975 194.853 63.1975Z" fill="#3170F3"/>
<path d="M180.539 52.9453H111.487V59.5502H180.539V52.9453Z" fill="white"/>
<path opacity="0.07" d="M200.003 82.7285H107.703C103.765 82.7285 100.573 85.9155 100.573 89.8468V101.601C100.573 105.532 103.765 108.719 107.703 108.719H200.003C203.941 108.719 207.133 105.532 207.133 101.601V89.8468C207.133 85.9155 203.941 82.7285 200.003 82.7285Z" fill="white"/>
<path d="M194.853 102.704C198.697 102.704 201.814 99.5926 201.814 95.7544C201.814 91.9162 198.697 88.8047 194.853 88.8047C191.008 88.8047 187.892 91.9162 187.892 95.7544C187.892 99.5926 191.008 102.704 194.853 102.704Z" fill="#3170F3"/>
<path d="M180.539 92.4519H111.487V99.0568H180.539V92.4519Z" fill="white"/>
<path opacity="0.07" d="M200.003 122.227H107.703C103.765 122.227 100.573 125.414 100.573 129.346V141.1C100.573 145.031 103.765 148.218 107.703 148.218H200.003C203.941 148.218 207.133 145.031 207.133 141.1V129.346C207.133 125.414 203.941 122.227 200.003 122.227Z" fill="white"/>
<path d="M194.853 142.203C198.697 142.203 201.814 139.091 201.814 135.253C201.814 131.415 198.697 128.304 194.853 128.304C191.008 128.304 187.892 131.415 187.892 135.253C187.892 139.091 191.008 142.203 194.853 142.203Z" fill="#3170F3"/>
<path d="M180.539 131.951H111.487V138.556H180.539V131.951Z" fill="white"/>
<path opacity="0.07" d="M200.003 161.726H107.703C103.765 161.726 100.573 164.913 100.573 168.845V180.599C100.573 184.53 103.765 187.717 107.703 187.717H200.003C203.941 187.717 207.133 184.53 207.133 180.599V168.845C207.133 164.913 203.941 161.726 200.003 161.726Z" fill="white"/>
<path d="M194.853 181.702C198.697 181.702 201.814 178.59 201.814 174.752C201.814 170.914 198.697 167.803 194.853 167.803C191.008 167.803 187.892 170.914 187.892 174.752C187.892 178.59 191.008 181.702 194.853 181.702Z" fill="#3170F3"/>
<path d="M180.539 171.45H111.487V178.055H180.539V171.45Z" fill="white"/>
<path d="M247.595 16.9098H210.118V44.2257H247.595V16.9098Z" fill="#78AEFF"/>
<path d="M226.673 37.0538H226.627C226.467 37.0465 226.311 37.0042 226.169 36.9301C226.027 36.856 225.903 36.7518 225.806 36.6248L222.091 31.8588C221.912 31.6292 221.832 31.3379 221.868 31.0491C221.904 30.7603 222.053 30.4975 222.283 30.3187C222.513 30.1399 222.805 30.0596 223.094 30.0955C223.384 30.1314 223.647 30.2806 223.826 30.5103L226.742 34.2648L233.949 26.4952C234.149 26.2909 234.421 26.1724 234.706 26.165C234.992 26.1575 235.27 26.2617 235.48 26.4555C235.69 26.6492 235.816 26.917 235.831 27.2021C235.846 27.4872 235.749 27.7669 235.561 27.9817L227.479 36.7014C227.376 36.8121 227.252 36.9005 227.113 36.9611C226.974 37.0217 226.825 37.0533 226.673 37.0538Z" fill="white"/>
<path opacity="0.2" d="M96.0988 49.8805C96.0988 49.8805 102.661 46.9381 102.661 52.2328C102.661 57.5274 95.9683 73.5032 99.6523 75.7559C103.336 78.0086 119.239 74.0625 121.764 89.9847C124.289 105.907 118.433 143.015 158.543 146.616C158.543 146.616 162.825 156.409 151.558 155.229C140.291 154.049 122.938 148.095 118.656 149.942C114.373 151.788 119.561 196.444 119.561 196.444H90.2811L90.4807 147.291L89.7976 69.5801L96.0988 49.8805Z" fill="black"/>
<path d="M94.9321 55.7344C94.9321 55.7344 95.4386 60.1939 94.7632 63.1821C94.6982 63.4725 94.5759 63.747 94.4036 63.9898C94.2313 64.2326 94.0124 64.4387 93.7596 64.5963C93.5068 64.7538 93.2252 64.8597 92.931 64.9076C92.6369 64.9555 92.3362 64.9446 92.0463 64.8755C91.1 64.7185 90.2195 64.2912 89.5113 63.6454C88.803 62.9995 88.2973 62.1626 88.0553 61.2359L86.6124 57.3512C86.4018 56.5445 86.4475 55.6924 86.7431 54.9127C87.0387 54.133 87.5697 53.4643 88.2625 52.999C90.7646 51.1371 94.7632 52.999 94.9321 55.7344Z" fill="#F4A28C"/>
<path d="M117.527 74.7062C117.527 74.7062 132.555 77.4033 128.94 107.072C125.325 136.74 156.017 144.111 156.017 144.111C156.017 144.111 164.168 141.567 165.373 146.509C166.578 151.451 156.017 149.574 156.017 149.574C156.017 149.574 123.782 151.038 110.735 119.691C110.743 119.699 102.661 82.2075 117.527 74.7062Z" fill="#F4A28C"/>
<path d="M87.4335 58.4468L83.8032 72.6986L91.8159 74.1315L91.2403 63.1898L87.4335 58.4468Z" fill="#F4A28C"/>
<path d="M86.1212 60.8375C86.1254 60.9307 86.1598 61.02 86.2194 61.0919C86.2789 61.1638 86.3603 61.2144 86.4512 61.2359C87.0858 61.403 87.7579 61.3561 88.3631 61.1025C88.9682 60.8489 89.4725 60.4029 89.7975 59.8337C90.1835 59.2149 90.379 58.4967 90.3599 57.768C90.3408 57.0393 90.1079 56.3322 89.6901 55.7344C91.0617 55.9612 92.4548 56.0306 93.8423 55.9413C94.3087 55.9131 94.7675 55.8096 95.2007 55.6348L96.2676 52.2328C96.2676 52.2328 98.0328 48.8231 96.0296 48.1411C94.0265 47.4592 93.1438 49.7425 91.5014 48.1411C89.8589 46.5397 89.4752 45.9421 87.8251 46.8615C86.1749 47.781 88.0937 49.0683 85.3691 49.1066C82.6444 49.1449 82.5984 50.2636 82.5984 51.5049C82.6644 51.9259 82.854 52.3179 83.1433 52.6312C84.9996 54.9727 86.0446 57.8523 86.1212 60.8375Z" fill="#78AEFF"/>
<path d="M90.2581 59.6881C90.2581 59.6881 90.1813 57.9641 88.8842 58.1557C87.5872 58.3473 87.687 60.8145 89.4599 60.9984L90.2581 59.6881Z" fill="#F4A28C"/>
<path d="M95.1085 58.5541L96.4056 60.2475C96.4686 60.347 96.5079 60.4596 96.5202 60.5766C96.5326 60.6937 96.5178 60.812 96.477 60.9224C96.4362 61.0328 96.3704 61.1324 96.2848 61.2133C96.1993 61.2943 96.0961 61.3544 95.9835 61.3892L94.272 61.757L95.1085 58.5541Z" fill="#F4A28C"/>
<path opacity="0.31" d="M91.2863 64.6456C91.2863 64.6456 90.2579 64.4694 88.4005 62.7914C88.4005 62.7914 88.1396 65.7183 91.4705 67.8638L91.2863 64.6456Z" fill="#CE8172"/>
<path d="M75.6142 144.142L72.9126 193.938L75.9979 193.893L87.0269 144.747L75.6142 144.142Z" fill="#F4A28C"/>
<path d="M105.608 144.142L108.31 193.938H104.91L94.1953 144.747L105.608 144.142Z" fill="#F4A28C"/>
<path d="M59.865 90.3755C59.6085 88.1682 59.8002 85.932 60.4287 83.8004C61.0572 81.6687 62.1096 79.6854 63.523 77.9689C64.9365 76.2524 66.6819 74.838 68.6552 73.81C70.6285 72.7821 72.789 72.1617 75.0078 71.9861C87.1036 71.0283 103.989 70.7754 117.527 74.6985C141.42 81.5945 107.373 138.502 107.373 138.502L72.9125 136.809C72.9125 136.809 62.6434 114.619 59.865 90.3755Z" fill="#3170F3"/>
<path opacity="0.08" d="M79.9734 80.4069C79.9734 80.4069 87.9324 86.8508 83.8109 96.9037C79.6894 106.957 72.6745 116.121 83.8109 117.898C94.9473 119.676 105.201 108.167 107.381 94.2909C109.561 80.4145 113.329 83.7016 113.329 83.7016L122.493 84.7514L118.732 111.899L108.31 111.6C108.31 111.6 101.402 126.158 89.7821 137.652L72.8971 136.824L70.4027 130.824L61.3462 106.52L79.9734 80.4069Z" fill="black"/>
<path d="M72.9126 136.809V162.362H87.8098L88.4929 153.26C88.6816 150.732 89.61 148.316 91.1628 146.31C92.7156 144.305 94.8244 142.8 97.227 141.981L107.373 138.487L72.9126 136.809Z" fill="#24285B"/>
<path d="M118.634 81.5888L99.6548 79.1649L96.0864 107.012L115.066 109.436L118.634 81.5888Z" fill="#78AEFF"/>
<path opacity="0.08" d="M117.013 94.2909C115.112 97.9952 112.1 101.014 108.398 102.927C104.695 104.839 100.486 105.549 96.3596 104.957L96.0986 107.003L115.079 109.424L117.013 94.2909Z" fill="black"/>
<path d="M107.373 138.487L110.167 162.339H94.2719C94.2719 162.339 93.6118 152.08 89.1296 144.716L107.373 138.487Z" fill="#24285B"/>
<path d="M79.4671 90.2988C85.3461 78.7212 71.2318 67.4347 61.1468 75.6563C56.7618 79.0775 53.4445 83.6757 51.5838 88.912C45.5743 106.535 39.5571 134.763 65.5523 131.598C91.5475 128.434 105.762 109.424 105.762 109.424L102.055 104.826C102.055 104.826 87.073 119.032 71.132 115.025C60.9857 112.496 73.0968 102.827 79.4671 90.2988Z" fill="#F4A28C"/>
<path d="M108.156 193.893C108.156 193.893 109.423 196.191 111.641 196C113.859 195.808 114.78 197.869 112.907 198.75C111.034 199.632 105.539 197.923 105.539 197.923L105.071 193.893H108.156Z" fill="#3170F3"/>
<path d="M72.9816 193.893C72.9816 193.893 71.7153 196.191 69.4972 196C67.2791 195.808 66.3581 197.869 68.2308 198.75C70.1035 199.632 75.5988 197.923 75.5988 197.923L76.067 193.893H72.9816Z" fill="#3170F3"/>
<path d="M102.077 104.849C102.077 104.849 105.385 100.474 109.553 101.555C113.72 102.635 105.784 109.424 105.784 109.424L102.077 104.849Z" fill="#F4A28C"/>
</svg>
