<svg width="145" height="175" viewBox="0 0 145 175" fill="none" xmlns="http://www.w3.org/2000/svg">
<g filter="url(#filter0_d)">
<path d="M61.1703 160.781C15.4794 94.5159 7 87.7203 7 63.3755C7 30.0281 34.0281 3 67.3756 3C100.723 3 127.751 30.0281 127.751 63.3755C127.751 87.7203 119.272 94.5025 73.5808 160.755C72.8869 161.754 71.9619 162.571 70.8845 163.136C69.8071 163.701 68.6092 163.997 67.3926 164C66.176 164.003 64.9768 163.711 63.897 163.151C62.8171 162.591 61.8886 161.778 61.1904 160.781L61.177 160.755L61.1703 160.781Z" fill="#3170F3"/>
</g>
<path d="M60.3747 54.3195C60.1192 54.6368 58.4764 56.718 56.7388 58.9393C55.0012 61.1607 52.1696 64.7724 50.4423 66.9693C48.7236 69.1626 47.1554 71.2032 46.9765 71.5097C45.9029 73.2983 44.8745 76.4909 44.7712 78.301C44.7159 79.3092 45.1186 80.0496 46.3415 81.2386C46.6713 81.5515 47.0239 81.8956 47.117 82C47.2977 82.1703 47.0666 82.9452 42.5376 97.2568C39.9201 105.547 37.7743 112.385 37.7766 112.465C37.7754 112.537 37.8495 112.67 37.9407 112.744C38.0914 112.866 38.0578 113.032 37.6051 114.232L37.103 115.585L36.6495 115.739C35.9979 115.953 35.6493 116.39 35.0513 117.731C34.5869 118.753 34.0123 120.674 33.817 121.81C33.7454 122.256 33.7438 122.277 34.0869 122.747C35.8579 125.257 39.6074 126.81 42.7271 126.343C44.1747 126.119 44.0101 126.237 44.7095 124.946C46.1236 122.328 46.6935 120.247 46.2068 119.449C46.1062 119.277 45.9776 119.085 45.9145 119.03C45.8565 118.962 46.0265 118.385 46.3697 117.462C46.9042 116.015 46.918 115.999 47.2519 115.925C47.4571 115.882 47.6063 115.801 47.6111 115.738C47.6245 115.671 48.5649 115.868 49.8686 116.211C57.1448 118.147 64.3493 119.807 68.6327 120.532C70.1657 120.792 70.1866 120.794 70.4775 120.564C71.4956 119.733 73.4662 114.876 76.073 106.783C77.7825 101.484 79.5788 95.4288 80.5514 91.7508C80.6276 91.4657 80.7677 90.3925 80.8628 89.358L81.0301 87.4812L81.8623 85.5471C83.7218 81.2134 84.6548 77.836 84.5186 75.91C84.471 75.3705 84.3512 74.9518 83.6794 73.1524C82.9099 71.0879 82.8725 70.971 82.3911 68.5453C82.1249 67.1702 81.8878 65.966 81.8661 65.8631C81.8531 65.7566 82.0451 65.333 82.3069 64.9317C83.1917 63.5249 83.526 62.332 83.2351 61.6173C83.1925 61.5127 83.2004 61.4078 83.2525 61.3866C83.3046 61.3654 83.962 60.5186 84.7244 59.5071C86.1904 57.5386 86.1493 57.6366 85.728 57.1984C85.6507 57.1079 85.7439 56.9887 86.1473 56.6619C91.2297 52.6116 96.2428 49.0874 99.9459 46.9702C101.991 45.8024 103.623 45.0366 105.067 44.5809C108.455 43.5063 113.69 42.6657 120.295 42.1314C122.078 41.9849 122.163 41.9705 122.318 41.755C122.654 41.2625 122.954 40.3074 122.995 39.5893C123.054 38.5899 122.892 37.843 122.427 36.8741C121.975 35.9399 121.838 35.7519 121.626 35.7774C121.532 35.7953 120.473 35.8807 119.258 35.979C112.319 36.5377 106.645 37.5166 103.318 38.7184C99.0081 40.2899 91.6032 44.7268 83.311 50.7137C81.762 51.832 81.665 51.8919 81.5004 51.7861C81.3114 51.67 80.8599 51.8538 78.3867 53.0637L77.6265 53.4342L77.3354 53.1666C76.49 52.3828 75.9857 52.2629 74.9588 52.5996C73.8118 52.9649 72.2329 54.0344 70.7541 55.4493L70.1107 56.0567L69.121 56.0125C68.2236 55.9713 68.0752 55.9301 67.4909 55.5888C64.7879 53.9963 62.2109 53.1858 61.1863 53.6029C60.9605 53.6948 60.6854 53.9389 60.3747 54.3195ZM62.6061 84.1694C64.3443 84.6101 65.854 85.0116 65.9763 85.0635C66.1633 85.1499 68.7898 87.6982 68.7555 87.763C68.7416 87.7788 67.9057 88.0377 66.889 88.35C65.8724 88.6622 64.8577 89.0042 64.6252 89.1293C64.1219 89.3849 63.1674 90.3222 62.735 90.9758C62.1443 91.8869 61.6829 93.0909 61.512 94.2375C61.4385 94.6536 61.4706 95.2299 62.1093 105.253C62.3314 108.658 62.4984 111.456 62.4969 111.477C62.4779 111.505 51.7934 105.175 51.4746 104.938C51.3065 104.824 51.5926 103.935 54.6192 94.9095L57.9476 85.0089L58.6125 84.2302C58.9733 83.7988 59.3208 83.4339 59.3642 83.4162C59.4127 83.3863 60.8715 83.7374 62.6061 84.1694ZM69.0925 92.8182L71.4817 92.7195L71.5075 93.1561C71.5232 93.3936 71.5247 93.5962 71.5074 93.6032C71.49 93.6103 71.2288 93.615 70.9206 93.6287C70.6088 93.6337 70.3408 93.6717 70.3254 93.7084C70.3013 93.7487 70.5715 95.1832 70.9134 96.8934C71.2675 98.6088 71.5484 100.069 71.5507 100.15C71.5499 100.272 69.2595 108.521 69.128 108.869C69.0699 109.025 65.7989 110.935 65.6801 110.892C65.6434 110.877 65.3717 107.349 65.0785 103.049C64.4808 94.3195 64.4664 94.7318 65.2852 93.8092C65.9812 93.0076 66.2855 92.9345 69.0925 92.8182Z" fill="white"/>
<defs>
<filter id="filter0_d" x="0" y="0" width="134.751" height="175" filterUnits="userSpaceOnUse" color-interpolation-filters="sRGB">
<feFlood flood-opacity="0" result="BackgroundImageFix"/>
<feColorMatrix in="SourceAlpha" type="matrix" values="0 0 0 0 0 0 0 0 0 0 0 0 0 0 0 0 0 0 127 0"/>
<feOffset dy="4"/>
<feGaussianBlur stdDeviation="3.5"/>
<feColorMatrix type="matrix" values="0 0 0 0 0.192157 0 0 0 0 0.439216 0 0 0 0 0.952941 0 0 0 0.3 0"/>
<feBlend mode="normal" in2="BackgroundImageFix" result="effect1_dropShadow"/>
<feBlend mode="normal" in="SourceGraphic" in2="effect1_dropShadow" result="shape"/>
</filter>
</defs>
</svg>
