<svg width="245" height="185" viewBox="0 0 245 185" fill="none" xmlns="http://www.w3.org/2000/svg">
<path opacity="0.45" d="M122.169 184.191C189.641 184.191 244.338 176.722 244.338 167.508C244.338 158.294 189.641 150.825 122.169 150.825C54.6969 150.825 0 158.294 0 167.508C0 176.722 54.6969 184.191 122.169 184.191Z" fill="#E6E6E6"/>
<path opacity="0.58" d="M187.243 152.548C187.243 152.548 177.524 149.939 175.375 140.905C175.375 140.905 190.407 137.805 190.898 153.329L187.243 152.548Z" fill="#3170F3"/>
<path opacity="0.73" d="M188.435 151.582C188.435 151.582 181.607 140.881 187.533 130.833C187.533 130.833 198.998 138.079 193.974 151.582H188.435Z" fill="#3170F3"/>
<path d="M190.15 151.582C190.15 151.582 193.684 140.237 204.514 138.047C204.514 138.047 206.575 145.39 197.549 151.582H190.15Z" fill="#3170F3"/>
<path d="M183.136 151.356L185.166 164.811H197.557L199.328 151.356H183.136Z" fill="#24285B"/>
<path d="M163.635 0H71.7407V164.811H163.635V0Z" fill="#C9C9C9"/>
<path d="M155.406 18.7927H79.3418V134.778H155.406V18.7927Z" fill="white"/>
<path opacity="0.08" d="M163.627 32.682H126.951V64.8647H163.627V32.682Z" fill="black"/>
<path opacity="0.08" d="M163.627 79.857H121.315V112.04H163.627V79.857Z" fill="black"/>
<path opacity="0.56" d="M117.966 158.627C122.933 158.627 126.959 154.6 126.959 149.633C126.959 144.666 122.933 140.64 117.966 140.64C112.999 140.64 108.972 144.666 108.972 149.633C108.972 154.6 112.999 158.627 117.966 158.627Z" fill="white"/>
<path opacity="0.08" d="M106.21 63.1014L121.315 65.3559L120.848 66.3624C119.342 69.7573 118.476 73.4016 118.296 77.1114C118.183 78.915 117.161 81.3788 113.763 84.2775C107.965 89.2212 104.238 105.139 96.5401 111.355C94.2617 113.255 92.4131 115.617 91.1166 118.285C89.8201 120.953 89.1053 123.866 89.0198 126.831L87.5221 164.803H72.5942L75.8874 106.742L79.8408 86.701L89.5029 76.7813L98.3598 65.3559L102.386 63.1014H106.21Z" fill="black"/>
<path opacity="0.12" d="M135.68 6.44138H109.914V10.2015H135.68V6.44138Z" fill="black"/>
<path d="M100.582 12.923C102.899 12.923 104.777 11.0449 104.777 8.72806C104.777 6.41125 102.899 4.53311 100.582 4.53311C98.2653 4.53311 96.3872 6.41125 96.3872 8.72806C96.3872 11.0449 98.2653 12.923 100.582 12.923Z" fill="white"/>
<path d="M79.8086 84.7042L94.2695 66.6764L97.3936 69.4139L85.0664 90.0264L79.8086 84.7042Z" fill="#3170F3"/>
<path d="M55.8548 55.0094L58.5199 63.0209L52.1832 67.0468L49.9045 53.1656L55.8548 55.0094Z" fill="#F4A28C"/>
<path d="M47.7305 45.4279C48.0596 44.6646 48.5743 43.9958 49.2278 43.4822C49.8814 42.9687 50.653 42.6267 51.4724 42.4875C52.2918 42.3482 53.1331 42.4161 53.9195 42.685C54.706 42.9539 55.4128 43.4151 55.9755 44.0269C58.6728 46.9013 61.9257 51.4828 58.2461 53.9788C52.6099 57.7953 47.4487 50.6615 47.4487 50.6615C47.0248 48.9273 47.1229 47.1065 47.7305 45.4279Z" fill="#F4A28C"/>
<path d="M51.8449 50.3394C51.8449 50.3394 50.4037 49.1317 49.7434 50.8467C49.0832 52.5617 51.6436 53.383 52.4005 52.5215C53.1574 51.6599 51.8449 50.3394 51.8449 50.3394Z" fill="#F4A28C"/>
<path d="M44.7837 70.976C45.7418 68.8565 47.1454 66.9683 48.8989 65.4399C50.6523 63.9115 52.7145 62.7789 54.945 62.1191C63.5523 59.5345 79.4142 62.3606 84.2452 70.4204C90.8637 81.4432 81.1775 116.476 81.1775 116.476L52.2396 118.723C52.2396 118.723 36.3616 89.9942 44.7837 70.976Z" fill="#3170F3"/>
<path d="M81.1774 116.46L77.369 166.204H71.3543L65.9758 127.555L52.6743 118.707L81.1774 116.46Z" fill="#24285B"/>
<path d="M52.6744 118.707L44.373 166.204H50.8225L64.76 126.742L52.6744 118.707Z" fill="#24285B"/>
<path opacity="0.08" d="M57.449 61.3461C57.449 61.3461 43.914 104.938 82.9971 107.829L81.1774 116.492L52.2395 118.739C52.2395 118.739 42.046 102.724 42.4728 80.2355C42.4728 80.2355 42.7224 69.116 50.5245 64.2045C52.6025 62.769 54.9634 61.7944 57.449 61.3461Z" fill="black"/>
<path d="M45.8866 166.099L41.9976 168.966C41.8555 169.074 41.7508 169.224 41.6978 169.395C41.6449 169.566 41.6464 169.749 41.7021 169.919C41.7579 170.089 41.8651 170.237 42.0089 170.343C42.1528 170.449 42.3261 170.508 42.5049 170.511H49.0187C49.2458 170.509 49.4629 170.418 49.6227 170.256C49.7825 170.095 49.8722 169.877 49.8722 169.65V166.099H45.8866Z" fill="#3170F3"/>
<path d="M76.6201 166.099L80.2837 168.966C80.4273 169.075 80.5328 169.228 80.5851 169.401C80.6374 169.574 80.6339 169.759 80.5751 169.93C80.5164 170.101 80.4052 170.249 80.2575 170.354C80.1099 170.458 79.9331 170.513 79.7522 170.512H75.1144C74.7847 170.517 74.4573 170.456 74.1512 170.334C73.8451 170.211 73.5666 170.028 73.3319 169.797C73.0972 169.565 72.9111 169.289 72.7845 168.984C72.6578 168.68 72.5931 168.353 72.5943 168.024V166.091L76.6201 166.099Z" fill="#3170F3"/>
<path d="M69.2449 61.8776C67.8032 64.1921 67.0391 66.8643 67.0391 69.5911C67.0391 72.3179 67.8032 74.9901 69.2449 77.3047C72.4012 82.6349 81.5882 93.0056 87.8605 99.8495C88.5691 100.625 89.4521 101.222 90.4366 101.589C91.421 101.957 92.4788 102.085 93.5225 101.963C94.5663 101.841 95.566 101.473 96.4393 100.888C97.3126 100.304 98.0344 99.5199 98.5451 98.6015L112.048 74.8409L107.474 71.91L95.1151 90.0264C95.1151 90.0264 86.6366 62.2238 69.2449 61.8776Z" fill="#3170F3"/>
<path opacity="0.2" d="M69.2449 61.8776C67.8032 64.1921 67.0391 66.8643 67.0391 69.5911C67.0391 72.3179 67.8032 74.9901 69.2449 77.3047C72.4012 82.6349 81.5882 93.0056 87.8605 99.8495C88.5691 100.625 89.4521 101.222 90.4366 101.589C91.421 101.957 92.4788 102.085 93.5225 101.963C94.5663 101.841 95.566 101.473 96.4393 100.888C97.3126 100.304 98.0344 99.5199 98.5451 98.6015L112.048 74.8409L107.474 71.91L95.1151 90.0264C95.1151 90.0264 86.6366 62.2238 69.2449 61.8776Z" fill="white"/>
<path d="M110.437 73.8182C110.437 73.8182 118.095 71.0082 114.971 66.6764C111.846 62.3445 107.458 71.91 107.458 71.91L110.437 73.8182Z" fill="#F4A28C"/>
<path d="M117.391 61.2386L110.491 58.1477L105.985 68.2074L112.885 71.2982L117.391 61.2386Z" fill="#78AEFF"/>
<path d="M50.3233 55.7099L46.0236 51.2734C45.5804 50.8117 45.2361 50.2643 45.0118 49.6648C44.7875 49.0653 44.6879 48.4263 44.7193 47.787C44.8239 45.5325 45.307 41.9334 47.1348 39.228C50.0656 34.9928 53.9707 33.3905 54.9369 37.0541C55.9031 40.7176 56.1125 36.3697 58.4716 38.3101C60.8308 40.2506 60.3477 41.402 58.4716 42.4326C56.5956 43.4632 52.7066 44.9609 52.3604 48.0688C52.0141 51.1768 54.9933 53.6326 50.3233 55.7099Z" fill="#24285B"/>
<path d="M95.0022 67.3205C95.0022 67.3205 95.9603 60.71 102.37 61.3461C108.779 61.9822 106.436 63.6167 103.851 63.7616C103.325 63.8721 102.839 64.1217 102.442 64.4842C102.046 64.8467 101.754 65.309 101.597 65.8229C101.218 66.9823 100.179 68.4799 97.4177 69.43L95.0022 67.3205Z" fill="#F4A28C"/>
<path d="M203.87 27.9234H126.951V60.1062H203.87V27.9234Z" fill="#78AEFF"/>
<path d="M198.234 75.4286H121.315V107.611H198.234V75.4286Z" fill="#78AEFF"/>
<path d="M161.204 34.9042H135.68V51.2573H161.204V34.9042Z" fill="white"/>
<path d="M194.079 36.6434H170.592V41.4744H194.079V36.6434Z" fill="white"/>
<path opacity="0.46" d="M194.079 44.4294H170.592V49.2605H194.079V44.4294Z" fill="white"/>
<path d="M187.122 84.2775H161.671V89.1085H187.122V84.2775Z" fill="white"/>
<path opacity="0.46" d="M187.122 92.0635H161.671V96.8945H187.122V92.0635Z" fill="white"/>
<path d="M142.588 103.175C149.165 103.175 154.496 97.8432 154.496 91.2664C154.496 84.6895 149.165 79.3578 142.588 79.3578C136.011 79.3578 130.679 84.6895 130.679 91.2664C130.679 97.8432 136.011 103.175 142.588 103.175Z" fill="#24285B"/>
<path d="M142.878 92.8445C145.404 92.8445 147.451 90.7969 147.451 88.2711C147.451 85.7453 145.404 83.6977 142.878 83.6977C140.352 83.6977 138.304 85.7453 138.304 88.2711C138.304 90.7969 140.352 92.8445 142.878 92.8445Z" fill="white"/>
<path opacity="0.24" d="M134.593 100.107C134.593 100.107 135.583 93.1182 142.572 92.7559C149.979 92.3775 150.551 100.107 150.551 100.107C148.363 102.082 145.52 103.176 142.572 103.176C139.624 103.176 136.781 102.082 134.593 100.107Z" fill="white"/>
<path d="M36.1602 59.7358L29.5497 57.0304V50.75H3.58289V66.926H29.5497V61.483L36.1602 59.7358Z" fill="#E6E6E6"/>
<path opacity="0.12" d="M10.757 60.8147C11.8465 60.8147 12.7297 59.9315 12.7297 58.8421C12.7297 57.7526 11.8465 56.8694 10.757 56.8694C9.6675 56.8694 8.7843 57.7526 8.7843 58.8421C8.7843 59.9315 9.6675 60.8147 10.757 60.8147Z" fill="black"/>
<path opacity="0.12" d="M16.5221 60.8147C17.6116 60.8147 18.4948 59.9315 18.4948 58.8421C18.4948 57.7526 17.6116 56.8694 16.5221 56.8694C15.4326 56.8694 14.5494 57.7526 14.5494 58.8421C14.5494 59.9315 15.4326 60.8147 16.5221 60.8147Z" fill="black"/>
<path opacity="0.12" d="M22.1502 60.8147C23.2396 60.8147 24.1228 59.9315 24.1228 58.8421C24.1228 57.7526 23.2396 56.8694 22.1502 56.8694C21.0607 56.8694 20.1775 57.7526 20.1775 58.8421C20.1775 59.9315 21.0607 60.8147 22.1502 60.8147Z" fill="black"/>
</svg>
